<?xml version="1.0" encoding="UTF-8"?>
<svg xmlns="http://www.w3.org/2000/svg" xmlns:xlink="http://www.w3.org/1999/xlink" width="256px" height="256px" viewBox="0 0 256 256" version="1.1">
<defs>
<linearGradient id="linear0" gradientUnits="userSpaceOnUse" x1="21.171" y1="17.395" x2="21.171" y2="32.354" gradientTransform="matrix(5.565217,0,0,5.565217,-50.086957,-50.086957)">
<stop offset="0" style="stop-color:rgb(42.745098%,78.039216%,100%);stop-opacity:1;"/>
<stop offset="1" style="stop-color:rgb(90.196078%,67.058824%,100%);stop-opacity:1;"/>
</linearGradient>
<linearGradient id="linear1" gradientUnits="userSpaceOnUse" x1="32" y1="9" x2="32" y2="55" gradientTransform="matrix(5.565217,0,0,5.565217,-50.086957,-50.086957)">
<stop offset="0" style="stop-color:rgb(10.196078%,42.745098%,100%);stop-opacity:1;"/>
<stop offset="1" style="stop-color:rgb(78.431373%,13.333333%,100%);stop-opacity:1;"/>
</linearGradient>
<linearGradient id="linear2" gradientUnits="userSpaceOnUse" x1="33.5" y1="20" x2="33.5" y2="44" gradientTransform="matrix(5.565217,0,0,5.565217,-50.086957,-50.086957)">
<stop offset="0" style="stop-color:rgb(10.196078%,42.745098%,100%);stop-opacity:1;"/>
<stop offset="1" style="stop-color:rgb(78.431373%,13.333333%,100%);stop-opacity:1;"/>
</linearGradient>
</defs>
<g id="surface1">
<path style=" stroke:none;fill-rule:nonzero;fill:url(#linear0);" d="M 75.03125 117.78125 C 74.847656 116.105469 74.730469 114.414062 74.730469 112.695312 C 74.730469 91.9375 88.605469 74.417969 107.632812 68.734375 C 100.386719 55.613281 86.421875 46.71875 70.371094 46.71875 C 50.269531 46.71875 33.429688 60.65625 28.972656 79.394531 C 28.617188 80.886719 28.34375 82.402344 28.148438 83.953125 C 27.9375 85.691406 27.824219 87.46875 27.824219 89.273438 C 27.824219 108.453125 40.519531 124.660156 57.96875 129.96875 C 62.332031 124.433594 68.203125 120.121094 75.03125 117.78125 Z M 75.03125 117.78125 "/>
<path style=" stroke:none;fill-rule:nonzero;fill:url(#linear1);" d="M 228.175781 0 L 27.824219 0 C 12.484375 0 0 12.484375 0 27.824219 L 0 228.175781 C 0 243.515625 12.484375 256 27.824219 256 L 228.175781 256 C 243.515625 256 256 243.515625 256 228.175781 L 256 27.824219 C 256 12.484375 243.515625 0 228.175781 0 Z M 244.871094 228.175781 C 244.871094 237.378906 237.378906 244.871094 228.175781 244.871094 L 27.824219 244.871094 C 18.621094 244.871094 11.128906 237.378906 11.128906 228.175781 L 11.128906 27.824219 C 11.128906 18.621094 18.621094 11.128906 27.824219 11.128906 L 228.175781 11.128906 C 237.378906 11.128906 244.871094 18.621094 244.871094 27.824219 Z M 244.871094 228.175781 "/>
<path style=" stroke:none;fill-rule:nonzero;fill:url(#linear2);" d="M 179.476562 97.949219 C 176.984375 97.949219 174.1875 98.03125 171.167969 98.480469 C 164.980469 76.871094 144.363281 61.21875 120.941406 61.21875 C 92.394531 61.21875 69.164062 84.308594 69.164062 112.695312 C 69.164062 113.175781 69.171875 113.652344 69.1875 114.132812 C 54.273438 120.992188 44.523438 135.90625 44.523438 152.488281 C 44.523438 175.804688 63.605469 194.78125 87.058594 194.78125 L 179.476562 194.78125 C 206.332031 194.78125 228.175781 173.0625 228.175781 146.363281 C 228.175781 119.667969 206.332031 97.949219 179.476562 97.949219 Z M 179.476562 183.652344 L 87.058594 183.652344 C 69.738281 183.652344 55.652344 169.671875 55.652344 152.488281 C 55.652344 139.207031 64.160156 127.382812 76.832031 123.046875 L 81.058594 121.605469 L 80.566406 117.171875 C 80.40625 115.695312 80.300781 114.210938 80.300781 112.695312 C 80.300781 90.445312 98.53125 72.347656 120.949219 72.347656 C 140.996094 72.347656 158.410156 86.816406 161.464844 106.007812 L 162.476562 112.363281 L 168.621094 110.441406 C 171.726562 109.472656 174.871094 109.078125 179.484375 109.078125 C 200.199219 109.078125 217.050781 125.800781 217.050781 146.363281 C 217.050781 166.929688 200.191406 183.652344 179.476562 183.652344 Z M 179.476562 183.652344 "/>
</g>
</svg>
